<?xml version="1.0" encoding="utf-8"?>
<!-- Generator: Adobe Illustrator 17.1.0, SVG Export Plug-In . SVG Version: 6.00 Build 0)  -->
<!DOCTYPE svg PUBLIC "-//W3C//DTD SVG 1.1//EN" "http://www.w3.org/Graphics/SVG/1.1/DTD/svg11.dtd">
<svg version="1.1" id="Layer_1" xmlns="http://www.w3.org/2000/svg" xmlns:xlink="http://www.w3.org/1999/xlink" x="0px" y="0px"
	 viewBox="0 0 231.5 40" enable-background="new 0 0 231.5 40" xml:space="preserve">
<g>
	<g>
		<path fill="#003366" d="M37,11h-6V0H19v23.4c0,3.9-1,5.8-3.8,5.8c-1.2,0-2-0.4-2.8-1.2c-0.8-0.8-1.2-1.8-1.2-2.9
			c0-1.2,0.5-2.2,1.3-3c0.8-0.8,1.7-1.2,2.8-1.2c0.9,0,0.6,0.3,2.6,1.1v-12c-2-0.1-2.2-0.2-2.8-0.2c-4,0-7.5,1.5-10.5,4.5
			c-3,3-4.4,6.5-4.4,10.7c0,4.2,1.5,7.8,4.5,10.7c3,2.9,6.6,4.4,11,4.4c2.2,0,4.3-0.5,6.4-1.4c2.1-1,3.9-2.2,5.2-3.9
			c2.3-2.8,3.6-6.4,3.6-10.9V22h6V11z"/>
	</g>
	<g>
		<path fill="#232323" d="M46.7,31.4c-1.9-1.9-2.8-4.4-2.8-7.6c0-3.1,1-5.6,2.9-7.5c1.9-1.9,4.3-2.8,6.9-2.8s4.8,1.1,6.5,3.4v-11
			h4.2V34h-4.2v-3c-1.6,2.2-3.8,3.3-6.8,3.3C50.8,34.3,48.6,33.3,46.7,31.4z M48.1,24c0,1.9,0.6,3.5,1.9,4.7
			c1.2,1.2,2.7,1.8,4.4,1.8s3.1-0.6,4.2-1.8c1.2-1.2,1.7-2.8,1.7-4.7c0-1.9-0.6-3.5-1.7-4.8c-1.2-1.3-2.6-1.9-4.3-1.9
			c-1.7,0-3.1,0.6-4.4,1.9C48.7,20.5,48.1,22.1,48.1,24z"/>
		<path fill="#232323" d="M85.4,34h-3.9v-2.7c-1.7,2-3.9,3-6.7,3c-2.1,0-3.8-0.6-5.2-1.8c-1.4-1.2-2.1-2.8-2.1-4.7
			c0-2,0.7-3.5,2.2-4.4c1.5-1,3.4-1.5,5.9-1.5h5.5v-0.8c0-2.7-1.5-4-4.5-4c-1.9,0-3.8,0.7-5.8,2L69,16.5c2.4-1.9,5.2-2.9,8.3-2.9
			c2.4,0,4.3,0.6,5.8,1.8c1.5,1.2,2.3,3.1,2.3,5.7V34z M81.1,26.5v-1.7h-4.8c-3.1,0-4.6,1-4.6,2.9c0,1,0.4,1.7,1.1,2.3
			c0.8,0.5,1.8,0.8,3.2,0.8s2.5-0.4,3.5-1.1C80.6,28.8,81.1,27.8,81.1,26.5z"/>
		<path fill="#232323" d="M94.8,17.3v10.2c0,1,0.3,1.7,0.8,2.3c0.5,0.6,1.2,0.9,2.1,0.9c0.9,0,1.8-0.4,2.6-1.3l1.7,3
			c-1.5,1.3-3.1,2-4.9,2s-3.3-0.6-4.6-1.9c-1.3-1.2-1.9-2.9-1.9-5.1V17.3H88v-3.4h2.5V7.5h4.2v6.3h5.3v3.4H94.8z"/>
		<path fill="#232323" d="M120.1,34h-3.9v-2.7c-1.7,2-3.9,3-6.7,3c-2.1,0-3.8-0.6-5.2-1.8c-1.4-1.2-2.1-2.8-2.1-4.7
			c0-2,0.7-3.5,2.2-4.4c1.5-1,3.4-1.5,5.9-1.5h5.5v-0.8c0-2.7-1.5-4-4.5-4c-1.9,0-3.8,0.7-5.8,2l-1.9-2.6c2.4-1.9,5.2-2.9,8.3-2.9
			c2.4,0,4.3,0.6,5.8,1.8c1.5,1.2,2.3,3.1,2.3,5.7V34z M115.9,26.5v-1.7h-4.8c-3.1,0-4.6,1-4.6,2.9c0,1,0.4,1.7,1.1,2.3
			c0.8,0.5,1.8,0.8,3.2,0.8c1.3,0,2.5-0.4,3.5-1.1C115.4,28.8,115.9,27.8,115.9,26.5z"/>
		<path fill="#0099FF" d="M129.5,17.3v10.2c0,1,0.3,1.7,0.8,2.3c0.5,0.6,1.2,0.9,2.1,0.9c0.9,0,1.8-0.4,2.6-1.3l1.7,3
			c-1.5,1.3-3.1,2-4.9,2s-3.3-0.6-4.6-1.9c-1.3-1.2-1.9-2.9-1.9-5.1V17.3h-2.5v-3.4h2.5V7.5h4.2v6.3h5.3v3.4H129.5z"/>
		<path fill="#0099FF" d="M157.3,25.8h-15.8c0.1,1.5,0.8,2.6,2,3.5c1.2,0.9,2.6,1.3,4.2,1.3c2.5,0,4.4-0.8,5.8-2.4l2.4,2.6
			c-2.2,2.2-5,3.4-8.5,3.4c-2.8,0-5.2-0.9-7.2-2.8c-2-1.9-3-4.4-3-7.6s1-5.7,3-7.5c2-1.9,4.4-2.8,7.1-2.8c2.7,0,5.1,0.8,7,2.5
			c1.9,1.7,2.9,3.9,2.9,6.8V25.8z M141.6,22.5h11.5c0-1.7-0.5-3-1.6-3.9s-2.4-1.4-3.9-1.4s-2.9,0.5-4.2,1.4
			C142.2,19.6,141.6,20.8,141.6,22.5z"/>
		<path fill="#0099FF" d="M176.8,34h-3.9v-2.7c-1.7,2-3.9,3-6.7,3c-2.1,0-3.8-0.6-5.2-1.8c-1.4-1.2-2.1-2.8-2.1-4.7
			c0-2,0.7-3.5,2.2-4.4c1.5-1,3.4-1.5,5.9-1.5h5.5v-0.8c0-2.7-1.5-4-4.5-4c-1.9,0-3.8,0.7-5.8,2l-1.9-2.6c2.4-1.9,5.2-2.9,8.3-2.9
			c2.4,0,4.3,0.6,5.8,1.8c1.5,1.2,2.3,3.1,2.3,5.7V34z M172.6,26.5v-1.7h-4.8c-3.1,0-4.6,1-4.6,2.9c0,1,0.4,1.7,1.1,2.3
			c0.8,0.5,1.8,0.8,3.2,0.8s2.5-0.4,3.5-1.1C172,28.8,172.6,27.8,172.6,26.5z"/>
		<path fill="#0099FF" d="M195.5,28c0,1.9-0.7,3.5-2.1,4.6c-1.4,1.1-3.2,1.7-5.3,1.7c-1.5,0-3-0.3-4.6-0.8c-1.6-0.5-3-1.3-4.2-2.2
			l2-3.3c2.3,1.8,4.6,2.6,6.8,2.6c1,0,1.7-0.2,2.3-0.7c0.6-0.4,0.8-1,0.8-1.7c0-1-1.3-1.9-4-2.7c-0.2-0.1-0.4-0.1-0.5-0.2
			c-4.2-1.1-6.3-3-6.3-5.7c0-1.9,0.7-3.4,2.2-4.5c1.4-1.1,3.3-1.7,5.7-1.7c2.3,0,4.5,0.7,6.6,2l-1.6,3.1c-1.6-1.1-3.4-1.6-5.3-1.6
			c-1,0-1.8,0.2-2.5,0.5c-0.6,0.4-0.9,0.9-0.9,1.6c0,0.7,0.3,1.1,1,1.4c0.5,0.2,1.1,0.4,1.9,0.6c0.8,0.2,1.5,0.4,2.2,0.6
			c0.6,0.2,1.2,0.4,1.8,0.7c0.6,0.3,1.2,0.6,1.9,1.1C194.8,24.6,195.5,26.1,195.5,28z"/>
		<path fill="#0099FF" d="M217.5,25.8h-15.8c0.1,1.5,0.8,2.6,2,3.5c1.2,0.9,2.6,1.3,4.2,1.3c2.5,0,4.4-0.8,5.8-2.4l2.4,2.6
			c-2.2,2.2-5,3.4-8.5,3.4c-2.8,0-5.2-0.9-7.2-2.8c-2-1.9-3-4.4-3-7.6s1-5.7,3-7.5c2-1.9,4.4-2.8,7.1-2.8c2.7,0,5.1,0.8,7,2.5
			c1.9,1.7,2.9,3.9,2.9,6.8V25.8z M201.8,22.5h11.5c0-1.7-0.5-3-1.6-3.9s-2.4-1.4-3.9-1.4s-2.9,0.5-4.2,1.4
			C202.4,19.6,201.8,20.8,201.8,22.5z"/>
		<path fill="#0099FF" d="M231.2,17.8c-2.1,0-3.7,0.7-4.7,2c-1.1,1.4-1.6,3.2-1.6,5.5V34h-4.2V13.9h4.2v4c0.7-1.3,1.6-2.3,2.8-3.1
			c1.2-0.8,2.4-1.2,3.7-1.2l0,4.3C231.4,17.8,231.3,17.8,231.2,17.8z"/>
	</g>
</g>
</svg>
